<svg width="32" height="32" viewBox="0 0 32 32" fill="none" xmlns="http://www.w3.org/2000/svg">
  <rect width="32" height="32" rx="7.5" fill="#2D5BFF" />
  <path
    fill="#fff"
    fill-rule="evenodd"
    clip-rule="evenodd"
    d="M9 8H17.5C20.5 8 22.5 9.6 22.5 12.2C22.5 13.9 21.6 15.1 20.1 15.7C22 16.2 23 17.6 23 19.6C23 22.3 20.9 24 17.8 24H9V8ZM12.2 10.8V14.6H17.1C18.4 14.6 19.2 13.9 19.2 12.7C19.2 11.5 18.4 10.8 17.1 10.8H12.2ZM12.2 17.3V21.2H17.6C19 21.2 19.8 20.4 19.8 19.2C19.8 18.1 19 17.3 17.6 17.3H12.2Z"
  />
</svg>
